<!DOCTYPE svg PUBLIC "-//W3C//DTD SVG 1.1//EN" "http://www.w3.org/Graphics/SVG/1.1/DTD/svg11.dtd">
<!-- Uploaded to: SVG Repo, www.svgrepo.com, Transformed by: SVG Repo Mixer Tools -->
<svg fill="#000000" version="1.1" id="Capa_1" xmlns="http://www.w3.org/2000/svg" xmlns:xlink="http://www.w3.org/1999/xlink" width="256px" height="256px" viewBox="0 0 67.875 67.875" xml:space="preserve">
<g id="SVGRepo_bgCarrier" stroke-width="0"/>
<g id="SVGRepo_tracerCarrier" stroke-linecap="round" stroke-linejoin="round"/>
<g id="SVGRepo_iconCarrier"> <g> <g> <path d="M20.112,39.626c0,9.323,5.511,15.349,14.039,15.349c8.528,0,14.039-6.024,14.039-15.349c0-0.553-0.448-1-1-1H21.112 C20.56,38.626,20.112,39.073,20.112,39.626z M46.167,40.626c-0.408,9.079-6.398,12.349-12.017,12.349 c-5.618,0-11.608-3.27-12.017-12.349H46.167z"/> <path d="M34.151,34.557c4.896,0,8.88-3.982,8.88-8.878s-3.984-8.879-8.88-8.879c-4.896,0-8.879,3.983-8.879,8.879 S29.255,34.557,34.151,34.557z M34.151,18.8c3.794,0,6.88,3.086,6.88,6.879s-3.086,6.879-6.88,6.879 c-3.793,0-6.879-3.086-6.879-6.879S30.358,18.8,34.151,18.8z"/> <path d="M9.726,53.607v-8.426c0-1.774,0.47-3.043,1.398-3.77c1.401-1.097,3.532-0.775,4.101-0.666 c1.368,7.209,5.096,13.212,10.047,16.533v9.596c0,0.553,0.448,1,1,1c0.552,0,1-0.447,1-1v-8.433 c2.141,1.058,4.458,1.641,6.879,1.641s4.738-0.583,6.88-1.641v8.433c0,0.553,0.447,1,1,1c0.551,0,1-0.447,1-1v-9.596 c4.946-3.318,8.672-9.312,10.043-16.516c0.275,0.028,0.588,0.05,0.932,0.05c1.195,0,2.72-0.238,3.969-1.21 c1.445-1.123,2.177-2.926,2.177-5.354v-8.425c0-0.553-0.448-1-1-1s-1,0.447-1,1v8.425c0,1.775-0.47,3.044-1.397,3.771 c-1.032,0.808-2.459,0.846-3.367,0.767c0.171-1.354,0.265-2.744,0.265-4.161c0-1.561-0.118-3.133-0.341-4.686 c1.656-0.748,2.755-2.386,2.755-4.262c0-2.827-2.567-5.09-5.421-4.622c-1.396-2.888-3.234-5.401-5.393-7.354 c1.311-1.409,3.447-4.844,4.045-12.624c0.023-0.296-0.086-0.587-0.299-0.794s-0.508-0.311-0.801-0.277 c-0.273,0.028-6.481,0.81-8.994,10.042C36.294,9.03,33.244,8.906,30.255,9.7c-2.229-5.537-6.316-6.05-6.498-6.069 c-0.301-0.032-0.59,0.069-0.803,0.276s-0.324,0.498-0.301,0.795c0.249,3.231,0.867,5.854,1.84,7.815 c-2.788,2.077-5.129,5.005-6.84,8.556c-0.299-0.06-0.604-0.092-0.915-0.092c-2.59,0-4.697,2.106-4.697,4.696 c0,1.944,1.193,3.635,2.938,4.338c-0.214,1.527-0.33,3.073-0.33,4.609c0,1.38,0.087,2.731,0.25,4.052 c-1.215-0.136-3.347-0.131-4.998,1.151c-1.445,1.123-2.177,2.925-2.177,5.354v8.425c0,0.553,0.448,1,1,1 C9.276,54.606,9.726,54.16,9.726,53.607z M17.464,26.878c0-0.138,0.112-0.25,0.25-0.25c0.138,0,0.25,0.112,0.25,0.25 C17.964,27.153,17.464,27.153,17.464,26.878z M52.83,24.964c0,0.275-0.5,0.275-0.5,0c0-0.138,0.112-0.25,0.25-0.25 C52.718,24.714,52.83,24.826,52.83,24.964z M51.511,22.997c-0.7,0.382-1.182,1.115-1.182,1.967c0,1.24,1.01,2.25,2.25,2.25 c0.445,0,0.857-0.134,1.207-0.357c-0.346,0.71-0.992,1.254-1.811,1.442c-0.001,0-0.001,0.001-0.002,0.001 c-0.221,0.051-0.419,0.076-0.605,0.076c-1.486,0-2.697-1.21-2.697-2.697c0-1.115,0.712-2.128,1.77-2.519l0.001-0.001 c0.325-0.118,0.628-0.177,0.927-0.177C51.417,22.982,51.462,22.994,51.511,22.997z M26.35,13.637 c0.051-0.034,0.083-0.085,0.125-0.127c0.047-0.046,0.101-0.085,0.138-0.139c0.038-0.056,0.056-0.118,0.082-0.179 c0.024-0.058,0.056-0.11,0.07-0.171c0.014-0.063,0.007-0.127,0.009-0.191s0.011-0.127,0-0.19 c-0.011-0.064-0.043-0.123-0.067-0.186c-0.021-0.056-0.028-0.114-0.061-0.167c-0.64-1.052-1.438-2.955-1.847-6.224 c1.156,0.601,2.838,1.988,3.894,5.162l0,0c0,0,0,0,0,0.001l0,0c0.025,0.075,0.073,0.133,0.113,0.197 c0.029,0.048,0.047,0.105,0.084,0.146c0.046,0.053,0.107,0.084,0.162,0.125c0.231,0.174,0.524,0.246,0.821,0.175 c0.028-0.006,0.056-0.001,0.084-0.01c0,0,0,0,0.001-0.001c3.188-1.056,6.458-0.89,9.532,0.436c0.028,0.013,0.06,0.009,0.088,0.019 c0.032,0.011,0.058,0.032,0.09,0.04c0.037,0.008,0.074-0.002,0.111,0.001c0.035,0.004,0.07,0.021,0.105,0.021 c0.045,0,0.088-0.014,0.132-0.02c0.026-0.003,0.051-0.005,0.077-0.011c0.229-0.05,0.436-0.176,0.582-0.368 c0.02-0.025,0.031-0.053,0.049-0.079c0.025-0.042,0.059-0.079,0.078-0.126c0.013-0.031,0.01-0.063,0.02-0.094 c0.01-0.03,0.031-0.054,0.038-0.086c1.405-6.321,4.552-8.498,6.306-9.234c-0.942,8.515-3.904,10.458-3.918,10.468 c-0.109,0.062-0.205,0.143-0.285,0.239l0.004,0.003c-0.006,0.007-0.014,0.009-0.02,0.016c-0.346,0.431-0.277,1.06,0.154,1.405 c2.279,1.831,4.227,4.346,5.676,7.3c-1.287,0.858-2.107,2.308-2.107,3.888c0,2.578,2.088,4.674,4.662,4.693 c0.194,1.413,0.317,2.837,0.317,4.254c0,12.935-7.851,23.458-17.5,23.458c-9.649,0-17.5-10.523-17.5-23.458 c0-1.425,0.123-2.855,0.32-4.273c2.48-0.124,4.465-2.163,4.465-4.674c0-1.531-0.747-2.927-1.953-3.797 C21.188,18.367,23.544,15.522,26.35,13.637z M16.74,22.982c0.366,0,0.72,0.072,1.053,0.214h0.001 c0.918,0.392,1.531,1.25,1.624,2.229c-0.413-0.484-1.02-0.798-1.704-0.798c-1.241,0-2.25,1.01-2.25,2.25 c0,0.513,0.179,0.979,0.468,1.358c-1.111-0.349-1.889-1.369-1.889-2.558C14.043,24.192,15.253,22.982,16.74,22.982z"/> <path d="M34.151,31.626c3.279,0,5.947-2.668,5.947-5.947c0-3.278-2.667-5.946-5.947-5.946c-3.28,0-5.947,2.668-5.947,5.946 C28.204,28.958,30.872,31.626,34.151,31.626z M34.151,21.732c2.177,0,3.947,1.771,3.947,3.946c0,2.177-1.771,3.947-3.947,3.947 c-2.176,0-3.947-1.771-3.947-3.947C30.204,23.503,31.975,21.732,34.151,21.732z"/> </g> </g> </g>
</svg>